# xmcd
#
# Track frame offsets:
#	150
#	18215
#	36147
#	52329
#	74575
#	88795
#	107460
#
# Disc length: 1682 seconds
# Revision: 1
# Processed by: cddbd v1.5.2PL0 Copyright (c) Steve Scherf et al.
# Submitted via: dBpowerAMP V12.0
#
DISCID=5a069007
DTITLE=Transvaal Diamond Syndicate - Sins of The Blessed
DYEAR=2012
DGENRE=Blues Rock
TTITLE0=Devil on my Shoulder
TTITLE1=I'm Your Ticket
TTITLE2=Ol' Carolina
TTITLE3=Blackwater
TTITLE4=Pistols at Dawn
TTITLE5=Mojo
TTITLE6=Cold-Hearted Killer
EXTD=
EXTT0=
EXTT1=
EXTT2=
EXTT3=
EXTT4=
EXTT5=
EXTT6=
PLAYORDER=
